<?xml version="1.0" encoding="UTF-8" standalone="no"?>
<svg width="256px" height="256px" viewBox="0 0 256 256" version="1.1" xmlns="http://www.w3.org/2000/svg">
    <g stroke="none" stroke-width="1" fill="none" fill-rule="evenodd">
        <circle fill="#1976D2" cx="128" cy="128" r="128"/>
        <path d="M128,60 C91.2,60 60,91.2 60,128 C60,164.8 91.2,196 128,196 C164.8,196 196,164.8 196,128 C196,91.2 164.8,60 128,60 Z M128,180 C100,180 76,156 76,128 C76,100 100,76 128,76 C156,76 180,100 180,128 C180,156 156,180 128,180 Z" fill="#FFFFFF"/>
        <circle fill="#FFFFFF" cx="128" cy="128" r="32"/>
    </g>
</svg>
